<?xml version="1.0" standalone="no"?>
<!DOCTYPE svg PUBLIC "-//W3C//DTD SVG 20010904//EN"
 "http://www.w3.org/TR/2001/REC-SVG-20010904/DTD/svg10.dtd">
<svg version="1.0" xmlns="http://www.w3.org/2000/svg"
 width="300.000000pt" height="300.000000pt" viewBox="0 0 300.000000 300.000000"
 preserveAspectRatio="xMidYMid meet">
<metadata>
Created by potrace 1.14, written by Peter Selinger 2001-2017
</metadata>
<g transform="translate(0.000000,300.000000) scale(0.100000,-0.100000)"
fill="#000000" stroke="none">
<path d="M1348 2655 c-2 -2 -36 -6 -77 -9 -40 -4 -96 -11 -125 -17 -28 -6 -62
-13 -76 -15 -72 -14 -265 -74 -292 -90 -3 -2 1 -23 10 -45 16 -40 15 -42 -11
-93 -29 -56 -79 -116 -96 -116 -10 0 -77 86 -107 136 -11 18 -17 15 -100 -41
-112 -75 -264 -226 -332 -330 -92 -141 -157 -346 -133 -424 21 -72 87 -131
147 -131 l27 0 -21 -23 c-19 -20 -22 -35 -22 -98 0 -51 5 -81 16 -97 13 -20
13 -22 0 -22 -27 0 -85 -60 -96 -98 -13 -47 -13 -157 0 -204 11 -39 69 -98 98
-98 19 -1 17 -2 -38 -40 -30 -21 -60 -82 -60 -125 0 -62 30 -171 60 -218 34
-54 81 -91 135 -107 29 -8 365 -10 1260 -8 l1221 3 49 26 c73 37 109 90 135
200 14 61 19 105 15 131 -8 45 -44 92 -89 115 l-31 16 29 8 c40 11 84 56 96
98 13 46 13 156 0 202 -12 44 -46 76 -97 94 -23 9 -36 19 -33 27 2 7 6 48 8
92 3 70 1 80 -19 102 l-22 24 42 0 c79 0 144 50 170 131 13 40 -1 126 -37 229
-71 203 -230 392 -456 540 -89 59 -106 64 -106 32 -1 -25 -83 -136 -103 -140
-25 -5 -44 13 -89 82 -41 64 -47 100 -22 147 8 17 14 32 12 34 -2 1 -46 16
-98 33 -183 58 -403 91 -602 90 -75 0 -138 -1 -140 -3z m-84 -109 c44 -18 66
-52 66 -101 0 -55 -78 -175 -114 -175 -33 0 -116 121 -116 168 0 44 26 88 64
106 39 19 58 20 100 2z m555 -12 c40 -33 55 -86 37 -129 -25 -60 -86 -135
-110 -135 -28 0 -105 106 -113 155 -17 104 106 176 186 109z m-855 -360 c19
-7 93 -120 101 -155 14 -58 -52 -139 -113 -139 -56 0 -122 64 -122 118 0 36
58 135 99 170 17 14 15 14 35 6z m544 -12 c11 -11 34 -41 53 -68 47 -68 48
-130 3 -175 -61 -61 -157 -42 -190 37 -20 48 -12 80 39 151 57 81 65 85 95 55z
m521 8 c10 -5 37 -38 60 -73 52 -80 55 -121 10 -171 -74 -85 -199 -40 -199 72
0 36 8 56 42 106 36 54 55 75 66 76 2 0 11 -4 21 -10z m206 -951 c-159 -45
-356 -164 -508 -308 l-74 -71 -54 58 c-107 115 -222 201 -389 291 l-95 51 595
-1 595 0 -70 -20z"/>
</g>
</svg>
